<svg aria-hidden="true" style="position: absolute; width: 0; height: 0; overflow: hidden;" version="1.1" xmlns="http://www.w3.org/2000/svg" xmlns:xlink="http://www.w3.org/1999/xlink">
<defs>
<symbol id="icon-top" viewBox="0 0 51 32">
<linearGradient id="top-gradient" x1="43.4" y1="-6.75" x2="4.4" y2="32" gradientUnits="userSpaceOnUse">
  <stop stop-color="#40AF79"/>
  <stop offset="1" stop-color="#124757"/>
</linearGradient>
<path fill="url(#top-gradient)" d="M11.498 28.221c-4.599 5.081-9.581 3.913-11.498 2.693l-4.744-6.151 0.402-24.643 27.457-6.915 27.538 6.513c-3.827 1.222-4.744 2.131-5.266 4.462-0.885 3.949-3.149 8.362-4.261 9.447-4.342 5.91-11.899 3.699-16.442 3.618s-7.598 1.206-9.286 4.543c-1.287 2.542-3.015 5.4-3.899 6.432z"></path>
</symbol>

<symbol id="icon-bottom" viewBox="0 0 18 32">
<linearGradient id="bottom-gradient" x1="18" y1="0" x2="0" y2="32" gradientUnits="userSpaceOnUse">
  <stop stop-color="#40af79"/>
  <stop offset="1" stop-color="#124757"/>
</linearGradient>
<path fill='url(#bottom-gradient)' d="M10.732 3.37c1.188 5.636 2.213 6.706 2.971 6.833 4.103 0.689 5.772-5.772 10.525-1.655s4.202 26.44-6.069 22.154-10.695-9.464-11.544-11.501c-0.679-1.63-2.858-3.537-3.862-4.286-4.651-4.108-1.401-9.917 0.806-12.308 1.896-2.094 5.984-4.872 7.172 0.764z"></path>
</symbol>
<symbol id="icon-logo" viewBox="0 0 32 32">
<path fill="#fff" style="fill: var(--color1, #fff)" d="M13.101 1.673c0.831-0.488 1.831-0.777 2.899-0.777s2.067 0.288 2.926 0.791l-0.027-0.015 8.059 4.653c1.745 1.021 2.898 2.886 2.899 5.020v0 9.306c0 0 0 0 0 0 0 2.134-1.154 3.999-2.871 5.006l-0.027 0.015-8.059 4.653c-0.831 0.488-1.831 0.777-2.899 0.777s-2.067-0.288-2.926-0.791l0.027 0.015-8.059-4.653c-1.745-1.021-2.898-2.886-2.899-5.020v0-9.306c0-2.134 1.154-3.999 2.871-5.005l0.027-0.015z"></path>
<path fill="#066c61" style="fill: var(--color2, #066c61)" d="M29.856 20.529v0.124c0 0 0 0 0 0 0 2.134-1.154 3.999-2.871 5.006l-0.027 0.015-8.059 4.653c-0.831 0.488-1.831 0.777-2.899 0.777s-2.067-0.288-2.926-0.791l0.027 0.015-8.059-4.653c-0.157-0.091-0.283-0.171-0.406-0.257l0.019 0.013-0.597-2.009 1.971-7.652 1.739-2.783 5.101 5.217 6.261-9.275z"></path>
<path fill="#b3dbc9" style="fill: var(--color3, #b3dbc9)" d="M4.214 25.094c-0.802-0.677-1.414-1.555-1.758-2.558l-0.012-0.041-0.009-0.118c0.271-3.014 1.438-9.206 3.942-9.855 3.246-0.842 4.87 9.855 4.87 9.855s1.442-14.897 5.913-14.609c3.594 0.232 4.985 7.652 4.058 21.217l-0.005 0.005-2.314 1.336c-0.727 0.427-1.59 0.703-2.512 0.764l-0.017 0.001c1.617-2.815 1.464-13.928 0.674-17.99-0.462 1.279-0.826 3.246-1.218 5.37-0.889 4.806-1.925 10.409-4.579 10.63-0.027 0.002-0.059 0.004-0.091 0.004-0.071 0-0.141-0.007-0.208-0.019l0.007 0.001-0.878-0.507c-1.671-1.618-2.962-6.584-3.468-9.334-0.092 2.486-1.029 5.329-1.497 6.467l-0.070-0.040q-0.091-0.053-0.179-0.108z"></path>
</symbol>
<symbol id="icon-close" viewBox="0 0 32 32">
<path fill="#5f5f5f" style="fill: var(--color1, #5f5f5f)" d="M23.543 21.657l-5.657-5.657 5.657-5.657-1.885-1.885-5.657 5.657-5.657-5.657-1.885 1.885 5.657 5.657-5.657 5.657 1.885 1.885 5.657-5.657 5.657 5.657z"></path>
</symbol>
<symbol id="icon-calendar" viewBox="0 0 32 32">
<path fill="#5f5f5f" style="fill: var(--color1, #5f5f5f)" d="M9.333 14.667h2.667v2.667h-2.667zM9.333 20h2.667v2.667h-2.667zM14.667 14.667h2.667v2.667h-2.667zM14.667 20h2.667v2.667h-2.667zM20 14.667h2.667v2.667h-2.667zM20 20h2.667v2.667h-2.667z"></path>
<path fill="#5f5f5f" style="fill: var(--color1, #5f5f5f)" d="M6.667 29.333h18.667c1.471 0 2.667-1.196 2.667-2.667v-18.667c0-1.471-1.196-2.667-2.667-2.667h-2.667v-2.667h-2.667v2.667h-8v-2.667h-2.667v2.667h-2.667c-1.471 0-2.667 1.196-2.667 2.667v18.667c0 1.471 1.196 2.667 2.667 2.667zM25.333 10.667l0.001 16h-18.668v-16z"></path>
</symbol>
<symbol id="icon-next" viewBox="0 0 32 32">
<path d="M8.549 8l-1.881 1.879 6.105 6.121-6.105 6.121 1.879 1.879 8.002-8z"></path>
<path d="M17.333 8l-1.879 1.879 6.105 6.121-6.105 6.121 1.879 1.879 8-8z"></path>
</symbol>
<symbol id="icon-prev" viewBox="0 0 32 32">
<path d="M23.451 8l1.881 1.879-6.105 6.121 6.105 6.121-1.879 1.879-8.002-8z"></path>
<path d="M14.667 8l1.879 1.879-6.105 6.121 6.105 6.121-1.879 1.879-8-8z"></path>
</symbol>
<symbol id="icon-grid" viewBox="0 0 32 32">
<path d="M23.273 23.273h8.727v8.727h-8.727zM0 0h8.727v8.727h-8.727zM11.636 0h8.727v8.727h-8.727zM0 23.273h8.727v8.727h-8.727zM23.273 0h8.727v8.727h-8.727zM0 11.636h8.727v8.727h-8.727zM11.636 11.636h8.727v8.727h-8.727zM11.636 23.273h8.727v8.727h-8.727zM23.273 11.636h8.727v8.727h-8.727z"></path>
</symbol>
<symbol id="icon-order" viewBox="0 0 35 32">
<path d="M0 0h8.727v8.727h-8.727zM0 11.636h8.727v8.727h-8.727zM0 23.273h8.727v8.727h-8.727zM13.091 14.545h21.818v2.909h-21.818zM13.091 26.182h21.818v2.909h-21.818zM13.091 2.909h21.818v2.909h-21.818z"></path>
</symbol>
<symbol id="icon-comment" viewBox="0 0 32 32">
<path d="M29.333 5.333c0-1.467-1.2-2.667-2.667-2.667h-21.333c-1.467 0-2.667 1.2-2.667 2.667v16c0 1.467 1.2 2.667 2.667 2.667h18.667l5.333 5.333z"></path>
</symbol>
<symbol id="icon-like" viewBox="0 0 32 32">
<path d="M2.667 11.2c0-0 0-0.001 0-0.001 0-3.976 3.224-7.2 7.2-7.2 0.047 0 0.094 0 0.14 0.001l-0.007-0c0.011-0 0.024-0 0.037-0 2.366 0 4.492 1.027 5.956 2.659l0.007 0.007c1.471-1.64 3.597-2.667 5.963-2.667 0.013 0 0.026 0 0.039 0h-0.002c0.040-0.001 0.086-0.001 0.133-0.001 3.976 0 7.2 3.224 7.2 7.2 0 0 0 0.001 0 0.001v-0c0 7.141-8.505 12.533-13.333 16.8-4.818-4.302-13.333-9.653-13.333-16.8z"></path>
</symbol>
</defs>
</svg>
